<?xml version="1.0" encoding="UTF-8" standalone="no"?>
<!DOCTYPE svg PUBLIC "-//W3C//DTD SVG 1.1//EN"
 "http://www.w3.org/Graphics/SVG/1.1/DTD/svg11.dtd">
<!-- Generated by graphviz version 2.43.0 (0)
 -->
<!-- Title: A KMeans and SOM Pipeline Pages: 1 -->
<svg width="574pt" height="305pt"
 viewBox="0.00 0.00 574.28 305.00" xmlns="http://www.w3.org/2000/svg" xmlns:xlink="http://www.w3.org/1999/xlink">
<g id="graph0" class="graph" transform="scale(1 1) rotate(0) translate(4 301)">
<title>A KMeans and SOM Pipeline</title>
<polygon fill="white" stroke="transparent" points="-4,4 -4,-301 570.28,-301 570.28,4 -4,4"/>
<!-- 68414549 -->
<g id="node1" class="node">
<title>68414549</title>
<ellipse fill="none" stroke="black" cx="260.14" cy="-192" rx="107.78" ry="18"/>
<text text-anchor="middle" x="260.14" y="-188.3" font-family="Times,serif" font-size="14.00">Normalize.transform</text>
</g>
<!-- 499072774 -->
<g id="node3" class="node">
<title>499072774</title>
<ellipse fill="none" stroke="black" cx="160.14" cy="-105" rx="98.58" ry="18"/>
<text text-anchor="middle" x="160.14" y="-101.3" font-family="Times,serif" font-size="14.00">KMeans.fit_predict</text>
</g>
<!-- 68414549&#45;&gt;499072774 -->
<g id="edge2" class="edge">
<title>68414549&#45;&gt;499072774</title>
<path fill="none" stroke="black" d="M240.38,-174.21C225.32,-161.4 204.38,-143.61 187.67,-129.4"/>
<polygon fill="black" stroke="black" points="189.74,-126.57 179.85,-122.76 185.21,-131.9 189.74,-126.57"/>
<text text-anchor="middle" x="221.14" y="-144.8" font-family="Times,serif" font-size="14.00">X</text>
</g>
<!-- 499072781 -->
<g id="node4" class="node">
<title>499072781</title>
<ellipse fill="none" stroke="black" cx="406.14" cy="-105" rx="83.69" ry="18"/>
<text text-anchor="middle" x="406.14" y="-101.3" font-family="Times,serif" font-size="14.00">SOM.fit_predict</text>
</g>
<!-- 68414549&#45;&gt;499072781 -->
<g id="edge3" class="edge">
<title>68414549&#45;&gt;499072781</title>
<path fill="none" stroke="black" d="M288.29,-174.61C311.46,-161.12 344.48,-141.9 369.67,-127.23"/>
<polygon fill="black" stroke="black" points="371.69,-130.11 378.57,-122.05 368.17,-124.06 371.69,-130.11"/>
<text text-anchor="middle" x="346.14" y="-144.8" font-family="Times,serif" font-size="14.00">X</text>
</g>
<!-- 261617047 -->
<g id="node2" class="node">
<title>261617047</title>
<ellipse fill="none" stroke="black" cx="260.14" cy="-279" rx="93.68" ry="18"/>
<text text-anchor="middle" x="260.14" y="-275.3" font-family="Times,serif" font-size="14.00">DatasetArray.load</text>
</g>
<!-- 261617047&#45;&gt;68414549 -->
<g id="edge1" class="edge">
<title>261617047&#45;&gt;68414549</title>
<path fill="none" stroke="black" d="M260.14,-260.8C260.14,-249.16 260.14,-233.55 260.14,-220.24"/>
<polygon fill="black" stroke="black" points="263.64,-220.18 260.14,-210.18 256.64,-220.18 263.64,-220.18"/>
<text text-anchor="middle" x="265.14" y="-231.8" font-family="Times,serif" font-size="14.00">X</text>
</g>
<!-- 499067957 -->
<g id="node5" class="node">
<title>499067957</title>
<ellipse fill="none" stroke="black" cx="137.14" cy="-18" rx="137.28" ry="18"/>
<text text-anchor="middle" x="137.14" y="-14.3" font-family="Times,serif" font-size="14.00">PersistDaskData.transform</text>
</g>
<!-- 499072774&#45;&gt;499067957 -->
<g id="edge4" class="edge">
<title>499072774&#45;&gt;499067957</title>
<path fill="none" stroke="black" d="M155.48,-86.8C152.3,-75.05 148.03,-59.24 144.4,-45.84"/>
<polygon fill="black" stroke="black" points="147.78,-44.91 141.79,-36.18 141.02,-46.74 147.78,-44.91"/>
<text text-anchor="middle" x="155.14" y="-57.8" font-family="Times,serif" font-size="14.00">X</text>
</g>
<!-- 499068127 -->
<g id="node6" class="node">
<title>499068127</title>
<ellipse fill="none" stroke="black" cx="429.14" cy="-18" rx="137.28" ry="18"/>
<text text-anchor="middle" x="429.14" y="-14.3" font-family="Times,serif" font-size="14.00">PersistDaskData.transform</text>
</g>
<!-- 499072781&#45;&gt;499068127 -->
<g id="edge5" class="edge">
<title>499072781&#45;&gt;499068127</title>
<path fill="none" stroke="black" d="M410.79,-86.8C413.97,-75.05 418.25,-59.24 421.87,-45.84"/>
<polygon fill="black" stroke="black" points="425.26,-46.74 424.49,-36.18 418.5,-44.91 425.26,-46.74"/>
<text text-anchor="middle" x="423.14" y="-57.8" font-family="Times,serif" font-size="14.00">X</text>
</g>
</g>
</svg>
